<?xml version="1.0" encoding="utf-8"?>
<!-- Generator: Adobe Illustrator 24.1.1, SVG Export Plug-In . SVG Version: 6.00 Build 0)  -->
<svg version="1.1" id="Layer_1" xmlns="http://www.w3.org/2000/svg" xmlns:xlink="http://www.w3.org/1999/xlink" x="0px" y="0px"
	 viewBox="0 0 572 316" style="enable-background:new 0 0 572 316;" xml:space="preserve">
<style type="text/css">
	.st0{fill:#FEE8B8;stroke:#343A40;stroke-width:11;stroke-miterlimit:10;}
</style>
<g>
	<g>
		<g>
			<path class="st0" d="M545.7,152.2l-119.5-128c-1.6-1.7-3.9-2.7-6.2-2.7H283.5c-3.5,0-6.6,2.1-7.9,5.3c-1.3,3.2-0.6,6.9,1.9,9.3
				l122,122l-122,122c-2.4,2.4-3.2,6.1-1.9,9.3c1.3,3.2,4.4,5.3,7.9,5.3H420c2.4,0,4.6-1,6.2-2.7l119.5-128
				C548.8,160.5,548.8,155.5,545.7,152.2z"/>
			<path class="st0" d="M306.8,152.2l-119.5-128c-1.6-1.7-3.9-2.7-6.2-2.7H44.5c-3.5,0-6.6,2.1-7.9,5.3c-1.3,3.2-0.6,6.9,1.9,9.3
				l122,122l-122,122c-2.4,2.4-3.2,6.1-1.9,9.3c1.3,3.2,4.4,5.3,7.9,5.3h136.5c2.4,0,4.6-1,6.2-2.7l119.5-128
				C309.8,160.5,309.8,155.5,306.8,152.2z"/>
		</g>
	</g>
</g>
</svg>
